<svg width="24" height="24" viewBox="0 0 24 24" fill="none" xmlns="http://www.w3.org/2000/svg">
<g clip-path="url(#clip0_31_493)">
<path d="M9.609 19.2L9.009 23.174C8.9629 23.3999 8.84017 23.6029 8.66158 23.7487C8.483 23.8944 8.25953 23.9741 8.029 23.974C7.96183 23.9741 7.89482 23.9674 7.829 23.954C7.70031 23.9279 7.57802 23.8766 7.46912 23.8033C7.36022 23.7299 7.26685 23.6357 7.19432 23.5263C7.1218 23.4168 7.07155 23.2941 7.04645 23.1652C7.02134 23.0363 7.02187 22.9037 7.048 22.775L7.648 18.801C7.70105 18.541 7.85522 18.3126 8.0766 18.1663C8.29799 18.0199 8.56846 17.9675 8.8285 18.0205C9.08855 18.0735 9.31687 18.2277 9.46324 18.4491C9.60961 18.6705 9.66205 18.94 9.609 19.2ZM10 2.5C10 2.00555 10.1466 1.5222 10.4213 1.11108C10.696 0.699953 11.0865 0.379521 11.5433 0.190302C12.0001 0.00108321 12.5028 -0.0484251 12.9877 0.0480379C13.4727 0.144501 13.9181 0.382603 14.2678 0.732234C14.6174 1.08187 14.8555 1.52732 14.952 2.01228C15.0484 2.49723 14.9989 2.99989 14.8097 3.45671C14.6205 3.91353 14.3001 4.30397 13.8889 4.57868C13.4778 4.85338 12.9945 5 12.5 5C11.837 5 11.2011 4.73661 10.7322 4.26777C10.2634 3.79893 10 3.16304 10 2.5ZM20 7C19.7348 7 19.4804 7.10536 19.2929 7.2929C19.1054 7.48043 19 7.73479 19 8V10H16.618L15.447 7.658C15.1978 7.15979 14.8148 6.74081 14.341 6.44797C13.8671 6.15514 13.3211 6.00002 12.764 6H10.418C10.0668 5.99993 9.72667 6.1231 9.45695 6.34805C9.18722 6.57301 9.00499 6.88548 8.942 7.231L7.893 12.991C7.77676 13.5776 7.83918 14.1855 8.07219 14.7362C8.30519 15.2869 8.69807 15.755 9.2 16.08L13 18.543V23C13 23.2652 13.1054 23.5196 13.2929 23.7071C13.4804 23.8946 13.7348 24 14 24C14.2652 24 14.5196 23.8946 14.7071 23.7071C14.8946 23.5196 15 23.2652 15 23V18C15 17.8332 14.9583 17.6691 14.8786 17.5226C14.799 17.376 14.6839 17.2517 14.544 17.161L13.338 16.378L14.468 10.172L15.105 11.447C15.1881 11.6132 15.3158 11.753 15.4739 11.8507C15.632 11.9484 15.8142 12.0001 16 12H19V23C19 23.2652 19.1054 23.5196 19.2929 23.7071C19.4804 23.8946 19.7348 24 20 24C20.2652 24 20.5196 23.8946 20.7071 23.7071C20.8946 23.5196 21 23.2652 21 23V8C21 7.73479 20.8946 7.48043 20.7071 7.2929C20.5196 7.10536 20.2652 7 20 7ZM6.4 15.893C6.16271 15.9619 5.91708 15.9979 5.67 16C5.29163 15.9887 4.9196 15.8999 4.57696 15.739C4.23431 15.5781 3.92836 15.3486 3.67805 15.0646C3.42774 14.7806 3.2384 14.4483 3.12177 14.0882C3.00514 13.728 2.96369 13.3478 3 12.971C3.08357 11.6619 3.50106 10.3961 4.21265 9.29408C4.92425 8.19212 5.90624 7.29078 7.065 6.676L5.91 12.61C5.6926 13.7282 5.86557 14.8871 6.4 15.893Z" fill="black"/>
</g>
<defs>
<clipPath id="clip0_31_493">
<rect width="24" height="24" fill="white"/>
</clipPath>
</defs>
</svg>
