<svg width="24" height="24" viewBox="0 0 24 24" fill="none" xmlns="http://www.w3.org/2000/svg">
<path d="M11.4246 16.7574L11.4946 16.8531L11.6002 16.9071C12.0578 17.1413 12.458 17.4738 12.772 17.8808C13.0859 18.2878 13.306 18.7593 13.4164 19.2613C13.5267 19.7634 13.5246 20.2837 13.4103 20.7848C13.2959 21.286 13.0721 21.7557 12.7548 22.1601C12.4376 22.5646 12.0348 22.8939 11.5754 23.1244C11.1159 23.355 10.6111 23.481 10.0972 23.4935C9.58331 23.5059 9.07302 23.4046 8.6029 23.1966C8.13278 22.9887 7.71448 22.6793 7.37799 22.2907L6.99939 21.8535L6.62149 22.2913C6.28519 22.6809 5.86679 22.9913 5.39633 23.2C4.92586 23.4088 4.41501 23.5108 3.90046 23.4986C3.38591 23.4865 2.88042 23.3606 2.4203 23.13C1.96018 22.8993 1.55684 22.5696 1.23925 22.1646C0.921665 21.7596 0.697706 21.2893 0.583458 20.7874C0.46921 20.2855 0.467508 19.7646 0.578476 19.262C0.689444 18.7594 0.910328 18.2877 1.22526 17.8806C1.5402 17.4735 1.94138 17.1412 2.39998 16.9075L2.50495 16.854L2.575 16.7593C3.94923 14.9012 5.19592 12.952 6.30649 10.9253L6.4337 10.6931L6.3132 10.4574C4.79732 7.49221 3.5 4.05282 3.5 1C3.5 0.867392 3.55268 0.740215 3.64645 0.646447C3.74021 0.552679 3.86739 0.5 4 0.5C4.13261 0.5 4.25978 0.552678 4.35355 0.646447C4.44732 0.740215 4.5 0.867392 4.5 1V1.01405L4.50079 1.02808C4.65034 3.6866 5.35141 6.28491 6.55942 8.65784L7.00566 9.53442L7.45086 8.6573C8.65563 6.28368 9.35321 3.68529 9.49925 1.02743L9.5 1.01373V1C9.5 0.867392 9.55268 0.740215 9.64645 0.646447C9.74022 0.552678 9.86739 0.5 10 0.5C10.1326 0.5 10.2598 0.552678 10.3536 0.646447C10.4473 0.740215 10.5 0.867392 10.5 1C10.5 4.06836 9.20922 7.5021 7.69781 10.4584L7.57693 10.6948L7.70512 10.9274C8.81903 12.9482 10.0614 14.8956 11.4246 16.7574ZM4.47206 15.8202L4.05231 16.4258L4.77013 16.5921C5.49006 16.7589 6.13843 17.15 6.62178 17.709L7.00013 18.1466L7.37833 17.7089C7.86242 17.1486 8.51241 16.7572 9.23402 16.5913L9.95353 16.4259L9.53292 15.8191C8.95673 14.988 8.21402 13.8492 7.43738 12.5119L7.00512 11.7676L6.57268 12.5118C5.7954 13.8495 5.05077 14.9852 4.47206 15.8202ZM18 5.5H17.5V6V8V8.5H18H23C23.1326 8.5 23.2598 8.55268 23.3536 8.64645C23.4473 8.74021 23.5 8.86739 23.5 9C23.5 9.13261 23.4473 9.25979 23.3536 9.35355C23.2598 9.44732 23.1326 9.5 23 9.5H18H17.5V10V12V12.5H18H23C23.1326 12.5 23.2598 12.5527 23.3536 12.6464C23.4473 12.7402 23.5 12.8674 23.5 13C23.5 13.1326 23.4473 13.2598 23.3536 13.3536C23.2598 13.4473 23.1326 13.5 23 13.5H18H17.5V14V16V16.5H18H23C23.1326 16.5 23.2598 16.5527 23.3536 16.6464C23.4473 16.7402 23.5 16.8674 23.5 17C23.5 17.1326 23.4473 17.2598 23.3536 17.3536C23.2598 17.4473 23.1326 17.5 23 17.5H18H17.5V18V23C17.5 23.1326 17.4473 23.2598 17.3536 23.3536C17.2598 23.4473 17.1326 23.5 17 23.5C16.8674 23.5 16.7402 23.4473 16.6464 23.3536C16.5527 23.2598 16.5 23.1326 16.5 23V5.0006C16.5014 3.8074 16.9761 2.66349 17.8198 1.81977C18.6634 0.976125 19.8072 0.501506 21.0003 0.5H23C23.1326 0.5 23.2598 0.552679 23.3536 0.646447C23.4473 0.740214 23.5 0.867391 23.5 1C23.5 1.13261 23.4473 1.25979 23.3536 1.35355C23.2598 1.44732 23.1326 1.5 23 1.5L21 1.5L20.9979 1.5C20.2766 1.50299 19.5739 1.72877 18.9858 2.14644C18.3977 2.56411 17.953 3.15328 17.7126 3.83334L17.4769 4.5H18.184H23C23.1326 4.5 23.2598 4.55268 23.3536 4.64645C23.4473 4.74021 23.5 4.86739 23.5 5C23.5 5.13261 23.4473 5.25979 23.3536 5.35355C23.2598 5.44732 23.1326 5.5 23 5.5H18ZM2.61107 22.0787C3.0222 22.3534 3.50555 22.5 4 22.5C4.66304 22.5 5.29893 22.2366 5.76777 21.7678C6.23661 21.2989 6.5 20.663 6.5 20C6.5 19.5055 6.35338 19.0222 6.07867 18.6111C5.80397 18.2 5.41352 17.8795 4.95671 17.6903C4.49989 17.5011 3.99723 17.4516 3.51227 17.548C3.02732 17.6445 2.58186 17.8826 2.23223 18.2322C1.8826 18.5819 1.6445 19.0273 1.54804 19.5123C1.45157 19.9972 1.50108 20.4999 1.6903 20.9567C1.87952 21.4135 2.19995 21.804 2.61107 22.0787ZM8.61107 22.0787C9.0222 22.3534 9.50555 22.5 10 22.5C10.663 22.5 11.2989 22.2366 11.7678 21.7678C12.2366 21.2989 12.5 20.663 12.5 20C12.5 19.5055 12.3534 19.0222 12.0787 18.6111C11.804 18.2 11.4135 17.8795 10.9567 17.6903C10.4999 17.5011 9.99723 17.4516 9.51227 17.548C9.02732 17.6445 8.58186 17.8826 8.23223 18.2322C7.8826 18.5819 7.6445 19.0273 7.54804 19.5123C7.45157 19.9972 7.50108 20.4999 7.6903 20.9567C7.87952 21.4135 8.19995 21.804 8.61107 22.0787Z" fill="black" stroke="black"/>
</svg>
