<svg width="24" height="24" viewBox="0 0 24 24" fill="none" xmlns="http://www.w3.org/2000/svg">
<g clip-path="url(#clip0_31_478)">
<path d="M17 0H7C4.243 0 2 2.243 2 5V20C2 22.206 3.794 24 6 24H17C19.757 24 22 21.757 22 19V5C22 2.243 19.757 0 17 0ZM20 5V16H8V2H12V10.347C12 10.97 12.791 11.237 13.169 10.742L14.5 8.999L15.831 10.742C16.209 11.237 17 10.97 17 10.347V2C18.654 2 20 3.346 20 5ZM6 2.184V16C5.268 16 4.591 16.212 4 16.556V5C4 3.698 4.839 2.598 6 2.184ZM17 22H6C3.371 21.953 3.373 18.046 6 18H20V19C20 20.654 18.654 22 17 22Z" fill="black"/>
</g>
<defs>
<clipPath id="clip0_31_478">
<rect width="24" height="24" fill="white"/>
</clipPath>
</defs>
</svg>
