<svg width="200" height="160" viewBox="0 0 200 160" fill="none" xmlns="http://www.w3.org/2000/svg">
<path d="M160.153 83.7481C148.005 81.6359 136.348 99.4917 112.653 142.748C85.1532 122.748 72.9203 119.041 77.6532 107.748C80.2165 101.632 92.6532 93.7481 89.6532 86.7481C86.6532 79.7481 70.1901 59.2668 57.1532 58.2481C57.1532 58.2481 66.6532 43.2481 84.1532 15.7481C91.4555 4.27307 100.153 -11.2519 115.153 12.2481C129.653 36.2481 160.153 83.7481 160.153 83.7481Z" fill="black"/>
<path d="M61.1532 159.248H7.15318C0.626794 156.057 -0.473562 152.864 0.153183 145.748L45.7275 74.7481C50.7263 68.1744 61.006 70.2481 62.6532 72.2481C71.6532 81.2481 75.9372 87.0001 73.1532 90.2481C70.3692 93.4961 43.6532 112.748 43.6532 112.748C43.6532 112.748 39.6532 116.248 43.1532 121.748L65.6532 144.748C70.6532 152.748 65.6532 157.748 61.1532 159.248Z" fill="black"/>
<path d="M186.745 159.812H132.745C125.311 157.275 122.519 154.792 124.745 144.812L152.245 100.312C158.245 92.812 168.245 95.812 172.745 103.812L198.245 145.312C201.745 151.312 198.745 159.812 186.745 159.812Z" fill="black"/>
</svg>
