<svg width="24" height="24" viewBox="0 0 24 24" fill="none" xmlns="http://www.w3.org/2000/svg">
<path d="M19.9986 11.987H16.3846L16.9246 7.653C17.0224 7.21451 17.0204 6.75966 16.9189 6.32203C16.8174 5.88439 16.6189 5.47515 16.338 5.12451C16.0571 4.77386 15.7011 4.49078 15.2962 4.29615C14.8913 4.10152 14.4478 4.00031 13.9986 4H11.6216L11.8816 1.987H16.9986V0H10.1166L9.60159 4H2.99859C2.55019 3.99954 2.10744 4.10008 1.70321 4.29414C1.29898 4.4882 0.943649 4.77082 0.663586 5.121C0.388561 5.45667 0.191529 5.84924 0.0867286 6.27034C-0.0180723 6.69145 -0.0280261 7.13058 0.0575864 7.556L2.11959 24L19.9986 23.987C21.0595 23.987 22.0769 23.5656 22.827 22.8154C23.5772 22.0653 23.9986 21.0479 23.9986 19.987V15.987C23.9986 14.9261 23.5772 13.9087 22.827 13.1586C22.0769 12.4084 21.0595 11.987 19.9986 11.987ZM21.9986 15.987V16.987H9.99859V15.987C9.99859 15.4566 10.2093 14.9479 10.5844 14.5728C10.9594 14.1977 11.4682 13.987 11.9986 13.987H19.9986C20.529 13.987 21.0377 14.1977 21.4128 14.5728C21.7879 14.9479 21.9986 15.4566 21.9986 15.987ZM13.9986 6C14.1484 5.99939 14.2964 6.03273 14.4315 6.0975C14.5666 6.16228 14.6853 6.25681 14.7786 6.374C14.8791 6.50557 14.9477 6.6587 14.9789 6.8213C15.0102 6.98391 15.0032 7.15155 14.9586 7.311L14.8716 7.987H11.1066L11.3636 6H13.9986ZM2.22259 6.374C2.31589 6.25777 2.43399 6.16387 2.56825 6.09916C2.70251 6.03445 2.84954 6.00057 2.99859 6H9.34459L9.08859 7.987H2.12259L2.02259 7.216C1.99022 7.06966 1.9914 6.91789 2.02603 6.77207C2.06067 6.62624 2.12787 6.49015 2.22259 6.374ZM2.37459 9.987H14.6216L14.3706 11.987H11.9986C10.9377 11.987 9.92031 12.4084 9.17016 13.1586C8.42001 13.9087 7.99859 14.9261 7.99859 15.987V19.987C7.99813 20.6944 8.18589 21.3891 8.54259 22H3.88359L2.37459 9.987ZM19.9986 21.987H11.9986C11.4682 21.987 10.9594 21.7763 10.5844 21.4012C10.2093 21.0261 9.99859 20.5174 9.99859 19.987V18.987H13.9986L16.9986 20.987L19.9986 18.987H21.9986V19.987C21.9986 20.5174 21.7879 21.0261 21.4128 21.4012C21.0377 21.7763 20.529 21.987 19.9986 21.987Z" fill="black"/>
</svg>
